<?xml version="1.0" encoding="UTF-8"?>
<svg width="322px" height="512px" viewBox="0 0 322 512" version="1.1" xmlns="http://www.w3.org/2000/svg" xmlns:xlink="http://www.w3.org/1999/xlink">
    <!-- Generator: Sketch 58 (84663) - https://sketch.com -->
    <title>baby-boy</title>
    <desc>Created with Sketch.</desc>
    <g id="Page-1" stroke="none" stroke-width="1" fill="none" fill-rule="evenodd">
        <g id="上传端-桌面" transform="translate(-1028.000000, -489.000000)" fill="#000000" fill-rule="nonzero">
            <g id="baby-boy" transform="translate(1028.000000, 489.000000)">
                <path d="M203.102,479.277 C197.978,477.222 192.154,479.712 190.099,484.839 C188.382,489.122 184.028,492 179.266,492 L142.734,492 C137.972,492 133.618,489.122 131.901,484.839 C129.846,479.712 124.025,477.227 118.898,479.277 C113.772,481.333 111.282,487.154 113.337,492.28 C118.14,504.26 129.678,512 142.734,512 L179.266,512 C192.322,512 203.86,504.26 208.662,492.28 C210.718,487.154 208.228,481.333 203.102,479.277 Z" id="Path"></path>
                <path d="M320.541,427.762 C317.825,413.758 309.197,401.634 296.864,394.474 C299.107,392.642 301.211,390.616 303.131,388.385 C312.602,377.382 316.796,362.837 314.635,348.482 C311.126,325.158 301.199,303.365 285.928,285.458 C274.494,272.051 260.44,261.247 244.711,253.655 C263.96,233.121 275.768,205.531 275.768,175.232 C275.767,122.798 240.42,78.463 192.303,64.804 C198.857,56.979 202.433,47.203 202.433,36.873 C202.434,16.541 185.892,0 165.561,0 C165.56,0 165.559,0 165.558,0 C157.351,0 149.664,2.669 143.915,7.514 C137.561,12.868 134.062,20.393 134.061,28.702 C134.061,34.224 138.538,38.702 144.061,38.702 C149.583,38.702 154.061,34.225 154.061,28.702 C154.061,26.323 154.983,24.34 156.803,22.806 C158.951,20.996 162.06,19.999 165.559,19.999 L165.56,19.999 C174.864,19.999 182.434,27.567 182.434,36.871 C182.434,43.173 179.98,49.097 175.524,53.553 C171.068,58.008 165.145,60.462 158.845,60.462 C158.844,60.462 158.844,60.462 158.843,60.462 C158.598,60.462 158.358,60.481 158.118,60.499 C96.162,62.035 46.233,112.912 46.232,175.231 C46.232,205.53 58.04,233.12 77.289,253.654 C61.561,261.246 47.507,272.049 36.073,285.457 C20.802,303.364 10.875,325.157 7.365,348.48 C5.205,362.836 9.398,377.381 18.869,388.384 C20.789,390.615 22.893,392.642 25.136,394.473 C12.803,401.633 4.174,413.757 1.459,427.761 C-1.264,441.801 2.23,456.314 11.043,467.577 L32.458,494.942 C41.11,505.998 54.253,511.943 67.584,511.943 C75.152,511.943 82.782,510.027 89.684,506.042 C108.745,495.037 116.913,471.345 108.684,450.933 L95.693,418.705 C94.825,416.552 93.799,414.487 92.654,412.503 L166,412.503 C171.523,412.503 176,408.025 176,402.503 C176,396.981 171.523,392.503 166,392.503 L73.644,392.503 L73.644,371.422 C73.644,368.707 75.852,366.499 78.567,366.499 L243.434,366.499 C246.148,366.499 248.357,368.707 248.357,371.422 L248.357,393.886 C238.435,399.325 230.602,408.049 226.306,418.705 L213.315,450.932 C205.086,471.345 213.254,495.037 232.315,506.042 C239.218,510.027 246.845,511.943 254.415,511.943 C267.745,511.943 280.89,505.997 289.542,494.942 L310.956,467.577 C319.771,456.314 323.264,441.802 320.541,427.762 Z M66.231,175.232 C66.231,122.977 108.746,80.463 161,80.463 C213.254,80.463 255.769,122.977 255.769,175.232 C255.769,227.487 213.256,270.001 161,270.001 C108.745,270.001 66.231,227.487 66.231,175.232 Z M77.146,426.183 L90.137,458.412 C94.662,469.639 90.168,482.67 79.685,488.723 C69.203,494.776 55.67,492.153 48.209,482.618 L26.794,455.253 C21.551,448.554 19.473,439.922 21.093,431.57 C22.713,423.218 27.868,415.988 35.236,411.734 C42.603,407.48 51.442,406.633 59.485,409.404 C67.528,412.177 73.965,418.294 77.146,426.183 Z M243.5,326.5 C237.977,326.5 233.5,330.978 233.5,336.5 L233.5,346.5 L88.566,346.5 L88.566,336.5 C88.566,330.978 84.089,326.5 78.566,326.5 C73.043,326.5 68.566,330.978 68.566,336.5 L68.566,348.601 C59.789,352.462 53.643,361.236 53.643,371.423 L53.643,385.544 C46.07,384.787 39.043,381.165 34.026,375.337 C28.359,368.752 25.85,360.048 27.142,351.457 C32.867,313.404 58.239,281.963 93.858,268.251 C112.75,281.925 135.948,290 161,290 C186.052,290 209.25,281.925 228.142,268.251 C263.761,281.963 289.133,313.404 294.858,351.457 C296.15,360.048 293.641,368.752 287.973,375.337 C282.957,381.165 275.929,384.787 268.356,385.544 L268.356,371.423 C268.356,361.262 262.241,352.507 253.5,348.631 L253.5,336.5 C253.5,330.978 249.023,326.5 243.5,326.5 Z M295.206,455.252 L273.792,482.617 C266.331,492.15 252.8,494.774 242.316,488.722 C231.832,482.669 227.339,469.638 231.865,458.409 L244.856,426.181 C248.037,418.291 254.474,412.175 262.517,409.402 C265.632,408.329 268.866,407.798 272.088,407.798 C277.185,407.798 282.252,409.127 286.766,411.733 C294.134,415.987 299.288,423.217 300.909,431.569 C302.527,439.921 300.449,448.553 295.206,455.252 Z" id="Shape"></path>
                <path d="M212.79,395.43 C210.93,393.57 208.35,392.5 205.72,392.5 C203.09,392.5 200.51,393.569 198.65,395.43 C196.79,397.291 195.72,399.87 195.72,402.5 C195.72,405.14 196.79,407.71 198.65,409.569 C200.51,411.439 203.09,412.5 205.72,412.5 C208.35,412.5 210.93,411.439 212.79,409.569 C214.65,407.71 215.72,405.13 215.72,402.5 C215.72,399.87 214.65,397.29 212.79,395.43 Z" id="Path"></path>
                <path d="M188.57,209.382 C184.28,205.904 177.983,206.565 174.505,210.854 C171.182,214.954 166.259,217.305 161,217.305 C155.741,217.305 150.817,214.953 147.495,210.854 C144.018,206.563 137.721,205.906 133.43,209.382 C129.139,212.859 128.48,219.156 131.958,223.447 C139.096,232.254 149.682,237.304 161,237.304 C172.318,237.304 182.905,232.253 190.042,223.447 C193.52,219.156 192.861,212.859 188.57,209.382 Z" id="Path"></path>
                <path d="M135.731,168.16 C126.66,159.089 111.9,159.089 102.827,168.16 C98.922,172.065 98.921,178.396 102.827,182.302 C106.732,186.208 113.064,186.208 116.969,182.303 C118.242,181.03 120.315,181.03 121.589,182.303 C123.542,184.255 126.101,185.232 128.66,185.232 C131.219,185.232 133.779,184.255 135.731,182.303 C139.636,178.398 139.636,172.066 135.731,168.16 Z" id="Path"></path>
                <path d="M219.173,168.159 C210.101,159.089 195.34,159.089 186.269,168.159 C182.364,172.064 182.364,178.396 186.269,182.302 C188.221,184.255 190.781,185.231 193.34,185.231 C195.899,185.231 198.459,184.254 200.411,182.302 C201.684,181.03 203.757,181.028 205.031,182.302 C208.936,186.208 215.268,186.207 219.173,182.301 C223.078,178.396 223.078,172.065 219.173,168.159 Z" id="Path"></path>
            </g>
        </g>
    </g>
</svg>