<?xml version="1.0" encoding="UTF-8"?>
<svg width="512px" height="427px" viewBox="0 0 512 427" version="1.1" xmlns="http://www.w3.org/2000/svg" xmlns:xlink="http://www.w3.org/1999/xlink">
    <!-- Generator: Sketch 58 (84663) - https://sketch.com -->
    <title>reply</title>
    <desc>Created with Sketch.</desc>
    <g id="Page-1" stroke="none" stroke-width="1" fill="none" fill-rule="evenodd">
        <g id="上传端-桌面" transform="translate(-519.000000, -568.000000)" fill="#2196F3" fill-rule="nonzero">
            <g id="reply" transform="translate(519.000000, 567.000000)">
                <path d="M213.333333,107.709333 L213.333333,17 C213.333333,10.5786667 209.472,4.776 203.562667,2.25866667 C197.674667,-0.237333333 190.784,1.02133333 186.197333,5.52266667 L4.864,181.522667 C1.74933333,184.530667 -2.49800181e-16,188.669333 -2.49800181e-16,193 C-2.49800181e-16,197.330667 1.74933333,201.469333 4.864,204.477333 L186.197333,380.477333 C190.826667,384.957333 197.696,386.216 203.562667,383.741333 C209.472,381.224 213.333333,375.421333 213.333333,369 L213.333333,278.333333 L243.584,278.333333 C342.485333,278.333333 433.664,332.093333 481.514667,418.536 L481.962667,419.346667 C484.821333,424.552 490.24,427.666667 496,427.666667 C497.322667,427.666667 498.645333,427.517333 499.968,427.176 C507.050667,425.362667 512,418.984 512,411.666667 C512,245.821333 378.517333,110.568 213.333333,107.709333 Z" id="Path"></path>
            </g>
        </g>
    </g>
</svg>